<svg width="59" height="127" viewBox="0 0 59 127" fill="none" xmlns="http://www.w3.org/2000/svg">
<path fill-rule="evenodd" clip-rule="evenodd" d="M0 40C0 37.7909 1.79086 36 4 36H55C57.2091 36 59 37.7909 59 40V123C59 125.209 57.2091 127 55 127H4C1.79086 127 0 125.209 0 123V40ZM31 122.5C31 123.881 29.8807 125 28.5 125C27.1193 125 26 123.881 26 122.5C26 121.119 27.1193 120 28.5 120C29.8807 120 31 121.119 31 122.5ZM7 40C5.34315 40 4 41.3431 4 43V115C4 116.657 5.34315 118 7 118H52C53.6569 118 55 116.657 55 115V43C55 41.3431 53.6569 40 52 40H7Z" fill="url(#paint0_linear_1127_3952)"/>
<path d="M33 51H51M33 55.5H48M33 59.5H51M33 63.5H46M33 67.5H50M8 87H26M8 91.5H26M8 103.5H26M8 95.5H24M8 99.5H21M9 48H29V71H9V48ZM30 84H50V107H30V84Z" stroke="url(#paint1_linear_1127_3952)"/>
<path d="M11.6988 7.3C11.6988 6.476 11.9988 5.78 12.5988 5.212C13.1988 4.644 13.9588 4.36 14.8788 4.36C15.7988 4.36 16.5588 4.644 17.1588 5.212C17.7588 5.78 18.0588 6.476 18.0588 7.3C18.0588 7.692 17.9828 8.08 17.8307 8.464C17.6868 8.848 17.5388 9.156 17.3867 9.388C17.2348 9.62 16.9988 9.944 16.6788 10.36L14.6388 13H13.3788L15.5988 10.192L15.6348 10.144L15.6468 10.132C15.4308 10.204 15.1548 10.24 14.8188 10.24C13.9308 10.24 13.1868 9.956 12.5868 9.388C11.9948 8.812 11.6988 8.116 11.6988 7.3ZM13.3548 5.932C12.9708 6.292 12.7788 6.748 12.7788 7.3C12.7788 7.852 12.9708 8.312 13.3548 8.68C13.7468 9.04 14.2548 9.22 14.8788 9.22C15.5028 9.22 16.0068 9.04 16.3908 8.68C16.7828 8.312 16.9788 7.852 16.9788 7.3C16.9788 6.748 16.7828 6.292 16.3908 5.932C16.0068 5.564 15.5028 5.38 14.8788 5.38C14.2548 5.38 13.7468 5.564 13.3548 5.932ZM19.023 10.3C19.023 9.908 19.095 9.52 19.239 9.136C19.383 8.752 19.531 8.448 19.683 8.224C19.843 7.992 20.083 7.664 20.403 7.24L22.443 4.6H23.703L21.483 7.408L21.435 7.468L21.423 7.48C21.663 7.4 21.943 7.36 22.263 7.36C23.151 7.36 23.891 7.648 24.483 8.224C25.083 8.792 25.383 9.484 25.383 10.3C25.383 11.124 25.083 11.82 24.483 12.388C23.883 12.956 23.123 13.24 22.203 13.24C21.283 13.24 20.523 12.956 19.923 12.388C19.323 11.82 19.023 11.124 19.023 10.3ZM20.679 8.932C20.295 9.292 20.103 9.748 20.103 10.3C20.103 10.852 20.295 11.312 20.679 11.68C21.071 12.04 21.579 12.22 22.203 12.22C22.827 12.22 23.331 12.04 23.715 11.68C24.107 11.312 24.303 10.852 24.303 10.3C24.303 9.748 24.107 9.292 23.715 8.932C23.331 8.564 22.827 8.38 22.203 8.38C21.579 8.38 21.071 8.564 20.679 8.932ZM27.6312 12.004C26.8952 11.18 26.5272 10.112 26.5272 8.8C26.5272 7.488 26.8952 6.42 27.6312 5.596C28.3672 4.772 29.2592 4.36 30.3072 4.36C31.3552 4.36 32.2472 4.772 32.9832 5.596C33.7192 6.42 34.0872 7.488 34.0872 8.8C34.0872 10.112 33.7192 11.18 32.9832 12.004C32.2472 12.828 31.3552 13.24 30.3072 13.24C29.2592 13.24 28.3672 12.828 27.6312 12.004ZM28.3632 6.292C27.8592 6.892 27.6072 7.728 27.6072 8.8C27.6072 9.872 27.8592 10.712 28.3632 11.32C28.8752 11.92 29.5232 12.22 30.3072 12.22C31.0912 12.22 31.7352 11.92 32.2392 11.32C32.7512 10.712 33.0072 9.872 33.0072 8.8C33.0072 7.728 32.7512 6.892 32.2392 6.292C31.7352 5.684 31.0912 5.38 30.3072 5.38C29.5232 5.38 28.8752 5.684 28.3632 6.292ZM35.59 15.28V7H36.55V7.96H36.562L36.682 7.78C36.818 7.572 37.062 7.372 37.414 7.18C37.766 6.98 38.198 6.88 38.71 6.88C39.51 6.88 40.19 7.18 40.75 7.78C41.31 8.372 41.59 9.112 41.59 10C41.59 10.888 41.31 11.632 40.75 12.232C40.19 12.824 39.51 13.12 38.71 13.12C38.198 13.12 37.762 13.024 37.402 12.832C37.05 12.632 36.81 12.424 36.682 12.208L36.562 12.04H36.55V15.28H35.59ZM37.126 8.404C36.742 8.82 36.55 9.352 36.55 10C36.55 10.648 36.742 11.18 37.126 11.596C37.518 12.012 38.006 12.22 38.59 12.22C39.174 12.22 39.658 12.012 40.042 11.596C40.434 11.18 40.63 10.648 40.63 10C40.63 9.352 40.434 8.82 40.042 8.404C39.658 7.988 39.174 7.78 38.59 7.78C38.006 7.78 37.518 7.988 37.126 8.404ZM41.9598 13L43.7598 9.94L42.0198 7H43.0998L44.5398 9.46H45.0798L46.5198 7H47.5998L45.8598 9.94L47.6598 13H46.5798L45.0798 10.36H44.5398L43.0398 13H41.9598Z" fill="white"/>
<path d="M0 25L5 27.8868V22.1132L0 25ZM59 25L54 22.1132V27.8868L59 25ZM2.95 25.5H4.91667V24.5H2.95V25.5ZM6.88333 25.5H8.85V24.5H6.88333V25.5ZM10.8167 25.5H12.7833V24.5H10.8167V25.5ZM14.75 25.5H16.7167V24.5H14.75V25.5ZM18.6833 25.5H20.65V24.5H18.6833V25.5ZM22.6167 25.5H24.5833V24.5H22.6167V25.5ZM26.55 25.5H28.5167V24.5H26.55V25.5ZM30.4833 25.5H32.45V24.5H30.4833V25.5ZM34.4167 25.5H36.3833V24.5H34.4167V25.5ZM38.35 25.5H40.3167V24.5H38.35V25.5ZM42.2833 25.5H44.25V24.5H42.2833V25.5ZM46.2167 25.5H48.1833V24.5H46.2167V25.5ZM50.15 25.5H52.1167V24.5H50.15V25.5ZM54.0833 25.5H56.05V24.5H54.0833V25.5Z" fill="white"/>
<defs>
<linearGradient id="paint0_linear_1127_3952" x1="4.82347" y1="69.1088" x2="44.2507" y2="114.063" gradientUnits="userSpaceOnUse">
<stop stop-color="white" stop-opacity="0.64"/>
<stop offset="1" stop-color="white" stop-opacity="0.24"/>
</linearGradient>
<linearGradient id="paint1_linear_1127_3952" x1="11.5154" y1="69.4662" x2="36.5244" y2="101.519" gradientUnits="userSpaceOnUse">
<stop stop-color="white" stop-opacity="0.64"/>
<stop offset="1" stop-color="white" stop-opacity="0.24"/>
</linearGradient>
</defs>
</svg>
