<svg width="40" height="107" viewBox="0 0 40 107" fill="none" xmlns="http://www.w3.org/2000/svg">
<path fill-rule="evenodd" clip-rule="evenodd" d="M5 36C2.23858 36 0 38.2386 0 41V102C0 104.761 2.23858 107 5 107H35C37.7614 107 40 104.761 40 102V41C40 38.2386 37.7614 36 35 36H5ZM6 39C4.34315 39 3 40.3431 3 42V101C3 102.657 4.34315 104 6 104H34C35.6569 104 37 102.657 37 101V42C37 40.3431 35.6569 39 34 39H6Z" fill="url(#paint0_linear_1127_3977)"/>
<path d="M13 39H27V40C27 41.1046 26.1046 42 25 42H15C13.8954 42 13 41.1046 13 40V39Z" fill="#A8A8A8"/>
<path d="M6 48.5H31M6 52.5H29M6 60.5H26M6 93H29M6 56.5H34M6 97.5H34M6 65H34V87H6V65Z" stroke="url(#paint1_linear_1127_3977)"/>
<path d="M3.6125 10.72H4.7525C4.8245 11.016 4.9485 11.268 5.1245 11.476C5.5245 11.972 6.1005 12.22 6.8525 12.22C7.5005 12.22 8.0005 12.064 8.3525 11.752C8.7125 11.44 8.8925 11.036 8.8925 10.54C8.8925 10.044 8.7165 9.64 8.3645 9.328C8.0125 9.016 7.5285 8.86 6.9125 8.86H5.1725V7.9L7.9805 5.632L7.9925 5.62H4.0325V4.6H9.4925V5.62L6.8525 7.744L6.7445 7.828L6.7325 7.84H6.9125C7.7925 7.84 8.5205 8.108 9.0965 8.644C9.6805 9.172 9.9725 9.804 9.9725 10.54C9.9725 11.284 9.6765 11.92 9.0845 12.448C8.5005 12.976 7.7565 13.24 6.8525 13.24C5.6525 13.24 4.7605 12.82 4.1765 11.98C3.9045 11.596 3.7165 11.176 3.6125 10.72ZM10.9292 10.3C10.9292 9.908 11.0012 9.52 11.1452 9.136C11.2892 8.752 11.4372 8.448 11.5892 8.224C11.7492 7.992 11.9892 7.664 12.3092 7.24L14.3492 4.6H15.6092L13.3892 7.408L13.3412 7.468L13.3292 7.48C13.5692 7.4 13.8492 7.36 14.1692 7.36C15.0572 7.36 15.7972 7.648 16.3892 8.224C16.9892 8.792 17.2892 9.484 17.2892 10.3C17.2892 11.124 16.9892 11.82 16.3892 12.388C15.7892 12.956 15.0292 13.24 14.1092 13.24C13.1892 13.24 12.4292 12.956 11.8292 12.388C11.2292 11.82 10.9292 11.124 10.9292 10.3ZM12.5852 8.932C12.2012 9.292 12.0092 9.748 12.0092 10.3C12.0092 10.852 12.2012 11.312 12.5852 11.68C12.9772 12.04 13.4852 12.22 14.1092 12.22C14.7332 12.22 15.2372 12.04 15.6212 11.68C16.0132 11.312 16.2092 10.852 16.2092 10.3C16.2092 9.748 16.0132 9.292 15.6212 8.932C15.2372 8.564 14.7332 8.38 14.1092 8.38C13.4852 8.38 12.9772 8.564 12.5852 8.932ZM19.5374 12.004C18.8014 11.18 18.4334 10.112 18.4334 8.8C18.4334 7.488 18.8014 6.42 19.5374 5.596C20.2734 4.772 21.1654 4.36 22.2134 4.36C23.2614 4.36 24.1534 4.772 24.8894 5.596C25.6254 6.42 25.9934 7.488 25.9934 8.8C25.9934 10.112 25.6254 11.18 24.8894 12.004C24.1534 12.828 23.2614 13.24 22.2134 13.24C21.1654 13.24 20.2734 12.828 19.5374 12.004ZM20.2694 6.292C19.7654 6.892 19.5134 7.728 19.5134 8.8C19.5134 9.872 19.7654 10.712 20.2694 11.32C20.7814 11.92 21.4294 12.22 22.2134 12.22C22.9974 12.22 23.6414 11.92 24.1454 11.32C24.6574 10.712 24.9134 9.872 24.9134 8.8C24.9134 7.728 24.6574 6.892 24.1454 6.292C23.6414 5.684 22.9974 5.38 22.2134 5.38C21.4294 5.38 20.7814 5.684 20.2694 6.292ZM27.4963 15.28V7H28.4563V7.96H28.4683L28.5883 7.78C28.7243 7.572 28.9683 7.372 29.3203 7.18C29.6723 6.98 30.1043 6.88 30.6163 6.88C31.4163 6.88 32.0963 7.18 32.6562 7.78C33.2163 8.372 33.4963 9.112 33.4963 10C33.4963 10.888 33.2163 11.632 32.6562 12.232C32.0963 12.824 31.4163 13.12 30.6163 13.12C30.1043 13.12 29.6683 13.024 29.3083 12.832C28.9563 12.632 28.7163 12.424 28.5883 12.208L28.4683 12.04H28.4563V15.28H27.4963ZM29.0323 8.404C28.6483 8.82 28.4563 9.352 28.4563 10C28.4563 10.648 28.6483 11.18 29.0323 11.596C29.4243 12.012 29.9123 12.22 30.4963 12.22C31.0803 12.22 31.5643 12.012 31.9483 11.596C32.3403 11.18 32.5363 10.648 32.5363 10C32.5363 9.352 32.3403 8.82 31.9483 8.404C31.5643 7.988 31.0803 7.78 30.4963 7.78C29.9123 7.78 29.4243 7.988 29.0323 8.404ZM33.8661 13L35.6661 9.94L33.9261 7H35.0061L36.4461 9.46H36.9861L38.4261 7H39.5061L37.7661 9.94L39.5661 13H38.4861L36.9861 10.36H36.4461L34.9461 13H33.8661Z" fill="white"/>
<path d="M0 25L5 27.8868V22.1132L0 25ZM40 25L35 22.1132V27.8868L40 25ZM3 25.5H5V24.5H3V25.5ZM7 25.5H9V24.5H7V25.5ZM11 25.5H13V24.5H11V25.5ZM15 25.5H17V24.5H15V25.5ZM19 25.5H21V24.5H19V25.5ZM23 25.5H25V24.5H23V25.5ZM27 25.5H29V24.5H27V25.5ZM31 25.5H33V24.5H31V25.5ZM35 25.5H37V24.5H35V25.5Z" fill="white"/>
<defs>
<linearGradient id="paint0_linear_1127_3977" x1="3.27015" y1="61.8322" x2="34.2958" y2="92.5706" gradientUnits="userSpaceOnUse">
<stop stop-color="white" stop-opacity="0.64"/>
<stop offset="1" stop-color="white" stop-opacity="0.24"/>
</linearGradient>
<linearGradient id="paint1_linear_1127_3977" x1="8.28911" y1="66.3278" x2="29.7018" y2="87.8454" gradientUnits="userSpaceOnUse">
<stop stop-color="white" stop-opacity="0.64"/>
<stop offset="1" stop-color="white" stop-opacity="0.24"/>
</linearGradient>
</defs>
</svg>
