<svg width="56" height="56" viewBox="0 0 56 56" fill="none" xmlns="http://www.w3.org/2000/svg">
<path d="M38.77 1.74999C38.6987 1.75275 38.6431 1.77265 38.606 1.80809L32.105 9.52928L30.7788 14.0889C29.8776 14.0591 28.9469 14.0478 27.9932 14.0478C21.2364 14.0478 15.75 14.7636 15.75 15.6509C15.75 17.7684 40.2329 17.7684 40.2329 15.6509C40.2329 14.9946 37.3019 14.4402 33.0757 14.1777L34.125 10.4248L40.2056 3.11034L40.2158 3.10008C40.3523 2.95833 40.0859 2.53289 39.6519 2.16014C39.3264 1.87927 38.984 1.7417 38.77 1.74999ZM30.2798 15.8833L30.2559 15.9551C30.2454 15.9638 30.2456 15.9753 30.2456 15.9858C30.2456 16.1171 30.7756 16.2251 31.4214 16.2251C32.0671 16.2251 32.6006 16.1171 32.6006 15.9858L32.6211 15.9038C32.7908 15.965 32.8843 16.0352 32.8843 16.1157C32.8843 16.3275 32.2284 16.5004 31.4111 16.4917C30.6166 16.4917 29.9585 16.3309 29.9585 16.1191C29.9585 16.0281 30.089 15.9445 30.2798 15.8833ZM40.0962 16.4849C36.8569 18.2121 19.1621 18.2238 15.9106 16.5088L17.3496 29.1655C17.9744 27.1478 19.5544 24.4236 21.5879 23.5976C22.2546 23.3246 22.9316 23.3259 23.5669 23.6899C24.1181 23.9927 24.5842 24.6274 24.6367 24.8794C24.7645 25.5356 24.4259 25.7954 24.1616 25.7954C23.8431 25.7954 23.5997 25.3335 23.4404 25.0605C23.0064 24.3238 22.3494 24.2921 21.6494 24.7768C20.9179 25.2808 20.2824 26.1285 19.8379 26.8652C19.2971 27.7525 18.8412 28.7307 18.5664 29.709C18.4072 30.2742 18.2616 31.1798 18.5049 31.7153C18.6116 31.9376 18.7689 32.0776 19.0244 32.0776C19.5547 32.0776 20.3248 31.4126 20.6958 31.0591C21.1718 30.6058 21.7858 29.899 22.0186 29.4458L22.5723 27.8838C22.847 27.1978 23.6182 27.3185 23.6182 27.8838C23.6182 28.9128 23.2288 29.2558 22.562 31.3838C21.9478 33.3508 21.7554 33.9883 21.7554 33.9883C21.6819 34.27 21.3951 34.7436 21.0889 34.7436C20.9611 34.7436 20.8679 34.7011 20.8154 34.6206C20.7087 34.4788 20.7195 34.0898 20.73 33.9883C20.751 33.6663 21.3957 31.7481 21.5024 31.4453C21.2907 31.6676 21.0689 31.8913 20.8257 32.1118C20.2534 32.6263 19.3333 33.3013 18.5493 33.3013C18.1888 33.3013 17.9581 33.2091 17.7358 33.0586L18.5391 41.0874C18.7508 41.5914 22.6916 42.8135 27.8804 42.8135C33.0796 42.8135 37.017 41.5826 37.2183 41.0874L38.3735 31.5478C37.7698 32.0728 37.0723 32.7195 36.2988 33.0415C35.7266 33.2742 34.4565 33.4229 34.4565 32.4639C34.4565 31.9389 35.421 30.9724 35.981 30.2969C36.1297 30.1254 36.4766 29.7022 36.4766 29.48C36.4766 29.1877 35.843 29.2552 35.2393 29.7295C34.8998 30.0025 34.5807 30.3674 34.3164 30.7104C33.8614 31.3159 33.6187 31.8384 33.4175 32.2724C32.7612 33.7039 32.9839 33.1397 32.4536 34.4907C31.9234 35.833 32.0101 35.6801 31.9033 35.9023C31.8088 36.0948 31.6702 36.2572 31.4795 36.3569C31.2782 36.4584 31.0032 36.4469 30.8335 36.3262C30.739 36.2649 30.6934 36.1339 30.6934 35.9536C30.6934 35.8626 30.7065 35.7712 30.7275 35.6802C30.8868 35.0642 31.5539 33.8557 32.3169 32.2212C32.4866 31.8484 32.4217 31.959 32.3989 31.9888C31.7427 32.5943 31.2438 32.8873 30.8745 33.0483C30.2603 33.3108 29.4973 33.3103 29.3398 32.6348C29.3293 32.5945 29.3298 32.552 29.3193 32.5117C28.0698 33.4392 26.7469 33.6916 27.2036 31.6948C26.7171 32.5226 25.8676 33.1987 24.8281 33.1987C24.3941 33.1987 24.0764 33.0588 23.9189 32.686C23.6757 32.1313 24.056 31.1809 24.4043 30.2832C24.5845 29.8299 24.8307 29.2847 25.1597 28.6494C25.3294 28.3064 25.6024 28.1038 25.9629 28.1948C26.0259 28.2158 26.0813 28.2368 26.1338 28.2666C26.4085 28.4486 26.3028 28.7182 26.1646 28.9912C25.7621 29.7472 25.4129 30.3023 25.1802 31.0898C25.0857 31.4223 24.9664 31.999 25.3374 31.999C25.5912 31.999 25.8343 31.9173 26.0688 31.7563C26.5553 31.4133 26.9471 30.9 27.2446 30.396C27.4564 30.0337 27.7116 29.5595 27.8394 29.1553C27.8919 28.9838 27.9573 28.8222 28.0308 28.6699C28.148 28.4179 28.3046 28.1572 28.5811 28.1572C28.7193 28.1572 28.8337 28.2079 28.9194 28.3076C29.0997 28.5299 29.0601 28.7582 28.9639 29.0015C28.7521 29.5667 28.4669 30.0723 28.2324 30.6865C28.0942 31.04 27.9453 31.493 27.9453 31.8657C27.9453 32.2087 28.3375 32.1271 28.6665 31.9853C28.9203 31.8751 29.1742 31.7057 29.3877 31.5342C29.5154 31.0407 29.4816 31.1498 32.1836 24.6538C32.3218 24.3213 32.5758 24.1787 32.8296 24.1787C32.9573 24.1787 33.0612 24.2215 33.168 24.2915C33.3482 24.4227 33.3508 24.7018 33.2773 24.9136C33.2038 25.1061 33.2118 25.0456 32.7988 25.9731C32.2476 27.1929 31.8891 28.0729 31.4009 29.1929C31.1996 29.6566 30.5864 31.0989 30.4814 31.4419C30.4184 31.6641 30.3424 32.0264 30.5874 32.0264C31.1597 32.0264 32.6322 30.7043 33.0347 30.3105C33.0557 30.2808 33.0884 30.27 33.1304 30.249C33.1934 30.0565 33.2556 29.8773 33.3081 29.6953C33.4569 29.3121 33.5956 28.8652 33.8721 28.5537C33.9561 28.4522 34.0508 28.3931 34.1558 28.3931C34.4515 28.3931 34.6001 28.5129 34.6001 28.7964C34.6001 28.9066 34.5276 29.3116 34.4839 29.4219C34.6326 29.2714 34.7892 29.1212 34.959 28.9707C36.548 27.5689 37.6797 28.2842 37.6797 28.9912C37.6797 29.7367 36.7382 30.7738 36.2202 31.3496C36.0505 31.5421 35.7009 31.8941 35.6904 31.9956C35.6904 32.1268 35.7846 32.1802 35.9229 32.1802C36.1346 32.1802 36.6008 31.8258 36.7705 31.7051C37.3008 31.3113 38.0181 30.7067 38.5273 30.2832L40.0962 16.4849ZM19.127 42.0547L20.7061 44.6182L21.3213 52.6265C21.3213 53.5242 24.3179 54.25 28.0034 54.25C31.6889 54.25 34.6855 53.5242 34.6855 52.6265L35.1743 44.5361L36.6646 42.0547C32.4698 43.7399 23.4915 43.7994 19.127 42.0547Z" fill="#969A9F"/>
</svg>
