<svg width="56" height="56" viewBox="0 0 56 56" fill="none" xmlns="http://www.w3.org/2000/svg">
<path fill-rule="evenodd" clip-rule="evenodd" d="M39.4128 7.52989C40.1454 7.95285 40.7285 8.80323 41.0316 10.2203C41.3347 11.6373 41.3264 13.5001 40.9723 15.7103C40.8362 16.5595 40.6505 17.4513 40.4162 18.378C38.3595 17.9125 36.1179 17.5604 33.7482 17.3413C32.3736 15.3987 30.9479 13.6334 29.5164 12.085C30.2018 11.4187 30.8812 10.812 31.5486 10.2696C33.2857 8.85781 34.8948 7.91919 36.2734 7.47319C37.6522 7.02714 38.6802 7.10692 39.4128 7.52989ZM26.4831 12.085C25.7977 11.4188 25.1183 10.8121 24.4509 10.2697C22.7139 8.85791 21.1048 7.9193 19.7261 7.4733C18.3473 7.02725 17.3193 7.10703 16.5867 7.52999C15.8541 7.95296 15.2711 8.80334 14.9679 10.2204C14.6649 11.6374 14.6732 13.5002 15.0273 15.7104C15.1633 16.5596 15.349 17.4514 15.5834 18.3781C17.64 17.9126 19.8816 17.5605 22.2513 17.3414C23.6259 15.3987 25.0516 13.6334 26.4831 12.085ZM27.9997 10.5276C27.2691 9.81727 26.5412 9.16721 25.822 8.58268C23.9644 7.07294 22.1187 5.96247 20.3953 5.40493C18.672 4.84743 16.9507 4.80965 15.4998 5.64733C14.0489 6.48501 13.2209 7.99459 12.8421 9.76574C12.4632 11.537 12.5021 13.6907 12.8807 16.0543C13.0274 16.9695 13.2264 17.9249 13.4763 18.9128C12.4959 19.1904 11.569 19.4957 10.7032 19.8263C8.46694 20.6801 6.58237 21.7234 5.23781 22.9371C3.89337 24.1508 3 25.6226 3 27.2979C3 28.9733 3.89337 30.4451 5.23781 31.6588C6.58237 32.8725 8.46694 33.9157 10.7032 34.7696C11.569 35.1002 12.4959 35.4055 13.4762 35.683C13.2264 36.6709 13.0274 37.6264 12.8807 38.5415C12.5021 40.9051 12.4632 43.0588 12.8421 44.8301C13.2209 46.6012 14.0489 48.1108 15.4998 48.9485C16.9507 49.7862 18.672 49.7484 20.3953 49.1909C22.1187 48.6334 23.9644 47.5229 25.822 46.0131C26.5412 45.4286 27.2692 44.7785 27.9997 44.0682C28.7303 44.7786 29.4583 45.4287 30.1775 46.0133C32.0351 47.523 33.8809 48.6335 35.6043 49.191C37.3276 49.7485 39.0489 49.7863 40.4998 48.9486C41.9507 48.1109 42.7786 46.6013 43.1575 44.8302C43.5363 43.0589 43.4975 40.9052 43.1188 38.5416C42.9722 37.6265 42.7732 36.671 42.5233 35.6832C43.5039 35.4056 44.4309 35.1002 45.2968 34.7696C47.5331 33.9157 49.4176 32.8725 50.7622 31.6588C52.1066 30.4451 53 28.9733 53 27.2979C53 25.6226 52.1066 24.1508 50.7622 22.9371C49.4176 21.7234 47.5331 20.6801 45.2968 19.8263C44.4309 19.4957 43.5039 19.1903 42.5233 18.9127C42.7732 17.9248 42.9722 16.9694 43.1188 16.0542C43.4975 13.6906 43.5363 11.5369 43.1575 9.76564C42.7786 7.99449 41.9507 6.48491 40.4998 5.64722C39.0489 4.80954 37.3276 4.84733 35.6043 5.40482C33.8809 5.96236 32.0351 7.07283 30.1775 8.58257C29.4583 9.16714 28.7303 9.81723 27.9997 10.5276ZM39.8217 20.4725C38.4176 20.1588 36.9155 19.8986 35.3353 19.7004C35.8509 20.5064 36.3561 21.3368 36.8483 22.1893C37.3405 23.0417 37.807 23.8944 38.2472 24.7439C38.8656 23.2763 39.3913 21.8453 39.8217 20.4725ZM39.4966 27.2979C40.4917 25.1361 41.3077 23.0188 41.9328 21.0049C42.8526 21.2653 43.7179 21.5504 44.5214 21.8572C46.6125 22.6556 48.2299 23.5799 49.3055 24.5508C50.3812 25.5218 50.8261 26.452 50.8261 27.2979C50.8261 28.1439 50.3812 29.074 49.3055 30.0451C48.2299 31.016 46.6125 31.9402 44.5214 32.7387C43.7179 33.0455 42.8526 33.3306 41.9329 33.591C41.3077 31.5771 40.4917 29.4597 39.4966 27.2979ZM37.0938 27.2979C36.4548 25.9713 35.7448 24.6258 34.9656 23.2762C34.1864 21.9266 33.3762 20.6389 32.5468 19.4223C31.0785 19.3123 29.5583 19.2545 28 19.2545C26.4415 19.2545 24.9211 19.3124 23.4527 19.4223C22.6233 20.6389 21.8131 21.9265 21.0339 23.2761C20.2547 24.6258 19.5447 25.9713 18.9057 27.2979C19.5447 28.6245 20.2547 29.9701 21.0339 31.3197C21.8131 32.6693 22.6234 33.9569 23.4527 35.1736C24.9212 35.2835 26.4415 35.3414 28 35.3414C29.5583 35.3414 31.0785 35.2835 32.5467 35.1736C33.3761 33.9569 34.1864 32.6693 34.9656 31.3196C35.7448 29.97 36.4548 28.6245 37.0938 27.2979ZM35.3352 34.8955C35.8509 34.0895 36.3561 33.2591 36.8483 32.4066C37.3405 31.5541 37.807 30.7014 38.2472 29.8519C38.8656 31.3195 39.3913 32.7505 39.8217 34.1234C38.4176 34.4371 36.9154 34.6972 35.3352 34.8955ZM30.9116 37.4495C29.9559 37.493 28.9843 37.5153 28 37.5153C27.0155 37.5153 26.0437 37.493 25.0879 37.4494C26.0497 38.7188 27.026 39.8896 27.9997 40.9487C28.9734 39.8896 29.9498 38.7188 30.9116 37.4495ZM29.5164 42.5108C30.9479 40.9624 32.3735 39.1972 33.7481 37.2545C36.1179 37.0354 38.3595 36.6834 40.4162 36.2179C40.6506 37.1446 40.8362 38.0363 40.9723 38.8855C41.3264 41.0957 41.3347 42.9585 41.0316 44.3755C40.7285 45.7926 40.1454 46.643 39.4128 47.0659C38.6802 47.4889 37.6522 47.5687 36.2734 47.1226C34.8948 46.6766 33.2857 45.738 31.5486 44.3262C30.8812 43.7838 30.2018 43.1771 29.5164 42.5108ZM26.4831 42.5108C25.0516 40.9624 23.6259 39.1972 22.2513 37.2545C19.8816 37.0354 17.64 36.6833 15.5834 36.2178C15.349 37.1445 15.1633 38.0362 15.0273 38.8854C14.6732 41.0956 14.6649 42.9584 14.9679 44.3754C15.2711 45.7925 15.8541 46.6429 16.5867 47.0658C17.3193 47.4888 18.3473 47.5686 19.7261 47.1225C21.1048 46.6765 22.7139 45.7379 24.4509 44.3261C25.1183 43.7837 25.7977 43.1771 26.4831 42.5108ZM16.1778 34.1233C17.5819 34.437 19.0841 34.6972 20.6642 34.8954C20.1486 34.0895 19.6434 33.2591 19.1513 32.4067C18.6591 31.5542 18.1925 30.7014 17.7524 29.8519C17.134 31.3195 16.6082 32.7505 16.1778 34.1233ZM17.7524 24.7439C18.1925 23.8944 18.6591 23.0417 19.1513 22.1892C19.6434 21.3367 20.1486 20.5064 20.6642 19.7005C19.084 19.8987 17.5819 20.1589 16.1779 20.4726C16.6083 21.8454 17.134 23.2763 17.7524 24.7439ZM16.5029 27.2979C15.5078 29.4597 14.6919 31.577 14.0667 33.5909C13.1471 33.3305 12.282 33.0454 11.4786 32.7387C9.3875 31.9402 7.77008 31.016 6.69451 30.0451C5.61882 29.074 5.17391 28.1439 5.17391 27.2979C5.17391 26.452 5.61882 25.5218 6.69451 24.5508C7.77008 23.5799 9.3875 22.6556 11.4786 21.8572C12.282 21.5505 13.1471 21.2654 14.0667 21.005C14.6919 23.0189 15.5078 25.1362 16.5029 27.2979ZM25.0878 17.1464C26.0437 17.1029 27.0155 17.0806 28 17.0806C28.9843 17.0806 29.9559 17.1029 30.9116 17.1464C29.9498 15.8771 28.9734 14.7063 27.9997 13.6471C27.026 14.7063 26.0496 15.8771 25.0878 17.1464ZM32.4564 27.2977C32.4564 29.759 30.4612 31.7542 27.9999 31.7542C25.5386 31.7542 23.5434 29.759 23.5434 27.2977C23.5434 24.8365 25.5386 22.8412 27.9999 22.8412C30.4612 22.8412 32.4564 24.8365 32.4564 27.2977Z" fill="#80848D"/>
</svg>
