<svg width="56" height="56" viewBox="0 0 56 56" fill="none" xmlns="http://www.w3.org/2000/svg">
<path d="M27.9692 1.75172C27.96 1.75204 27.9511 1.75454 27.9419 1.75514C27.9192 1.75662 27.8979 1.76383 27.8752 1.76711C27.7893 1.77946 27.7073 1.8045 27.6274 1.8423C27.6137 1.84879 27.5983 1.84699 27.5847 1.85426L4.83472 14.1043C4.76187 14.1437 4.69747 14.1932 4.63989 14.2495C4.62791 14.2612 4.62043 14.2765 4.60913 14.2888C4.55196 14.3515 4.5058 14.4213 4.46899 14.4973C4.45653 14.5229 4.44478 14.5473 4.43481 14.5742C4.39963 14.6691 4.37528 14.7673 4.375 14.8716V14.8733V14.875V41.125C4.375 41.2022 4.38635 41.2796 4.40576 41.3523C4.432 41.4496 4.47855 41.5384 4.53564 41.6206C4.54899 41.64 4.56339 41.657 4.57837 41.6753C4.64213 41.7531 4.71468 41.8241 4.80396 41.877C4.80552 41.8779 4.80751 41.8778 4.80908 41.8787L4.8125 41.8821L27.5522 55.002L27.5557 55.0037L27.5591 55.0054L27.5625 55.0071C27.6021 55.0299 27.6443 55.0424 27.6855 55.0584C27.7147 55.0697 27.7428 55.0862 27.7727 55.0943H27.7744C27.849 55.1143 27.9231 55.125 27.9983 55.125H28C28.0743 55.125 28.1496 55.115 28.2222 55.096C28.237 55.0921 28.2503 55.0836 28.2649 55.0789C28.3193 55.0615 28.3743 55.0423 28.4255 55.0139L52.0505 41.8889C52.0542 41.8869 52.0554 41.8825 52.0591 41.8804C52.0672 41.8757 52.0767 41.8751 52.0847 41.8701C52.1651 41.8201 52.2324 41.7545 52.2915 41.6839C52.3068 41.6655 52.3188 41.6468 52.3325 41.6275C52.3846 41.5542 52.4263 41.4758 52.4539 41.3899C52.4574 41.3787 52.4627 41.3688 52.4658 41.3574C52.4866 41.2825 52.5 41.2049 52.5 41.125V14.875C52.5 14.8689 52.4967 14.864 52.4966 14.8579C52.4942 14.7614 52.4721 14.6692 52.4402 14.5811C52.429 14.55 52.4171 14.5215 52.4026 14.4922C52.3672 14.4203 52.3229 14.3554 52.2693 14.2957C52.2561 14.281 52.2476 14.2633 52.2334 14.2495C52.173 14.1907 52.1055 14.1391 52.0283 14.0991L28.4033 1.84914C28.3672 1.83039 28.3283 1.82149 28.2905 1.80812C28.2691 1.80047 28.2493 1.79187 28.2273 1.7859C28.1428 1.7631 28.0558 1.74878 27.9692 1.75172ZM28.875 4.06398L49.6973 14.8596L41.1387 19.1406L28.875 12.6004V4.06398ZM27.125 4.09132V12.6004L14.8801 19.1304L7.08716 14.8801L27.125 4.09132ZM28 14.1179L39.2656 20.125L28 26.1321L16.7344 20.125L28 14.1179ZM50.75 16.2918V39.71L42 35.335V20.6651L50.75 16.2918ZM6.125 16.3499L14 20.6445V22.75C14 23.2339 14.392 23.625 14.875 23.625C15.358 23.625 15.75 23.2339 15.75 22.75V21.5845L27.125 27.6497V41.4155L15.75 35.3504V33.25C15.75 32.7661 15.358 32.375 14.875 32.375C14.392 32.375 14 32.7661 14 33.25V35.3555L6.125 39.6502V16.3499ZM40.25 21.5845V35.875C40.25 35.9187 40.2677 35.9561 40.2739 35.9981C40.2831 36.061 40.2891 36.1233 40.3115 36.1826C40.3315 36.2354 40.3642 36.2789 40.3936 36.3262C40.4231 36.3743 40.4487 36.4226 40.4875 36.4646C40.5299 36.5104 40.5816 36.5432 40.6328 36.5791C40.6682 36.604 40.6938 36.6378 40.7336 36.6577L49.7502 41.166L28.875 52.7632V42.875V27.6497L40.25 21.5845ZM14.875 25.375C14.392 25.375 14 25.7661 14 26.25V29.75C14 30.2339 14.392 30.625 14.875 30.625C15.358 30.625 15.75 30.2339 15.75 29.75V26.25C15.75 25.7661 15.358 25.375 14.875 25.375ZM37.719 35.7862C37.6057 35.7964 37.4929 35.8299 37.3857 35.887C36.9596 36.1145 36.7968 36.6435 37.0251 37.0696L37.8489 38.6145C38.0064 38.9094 38.309 39.0777 38.6213 39.0777C38.7596 39.0777 38.9011 39.0451 39.0332 38.9751C39.4593 38.7476 39.6205 38.2169 39.3921 37.7908L38.5684 36.2459C38.3977 35.9269 38.0589 35.7555 37.719 35.7862ZM14.8784 36.8696L27.125 43.3997V52.7359L7.03589 41.1455L14.8784 36.8696ZM34.072 37.731C33.9587 37.741 33.8457 37.7734 33.7388 37.8301C33.3126 38.0576 33.1507 38.5883 33.3782 39.0144L34.2019 40.5593C34.3603 40.8542 34.6637 41.0225 34.9761 41.0225C35.1143 41.0225 35.2541 40.9891 35.3862 40.9199C35.8124 40.6924 35.9743 40.1617 35.7468 39.7356L34.9231 38.1907C34.7518 37.8718 34.4119 37.7008 34.072 37.731ZM30.4268 39.6741C30.3134 39.6843 30.2007 39.7178 30.0935 39.7749C29.6665 40.0024 29.5054 40.5331 29.7329 40.9592L30.5566 42.5025C30.7141 42.7973 31.0167 42.9656 31.3291 42.9656C31.4674 42.9656 31.6088 42.9331 31.741 42.8631C32.1671 42.6356 32.3282 42.1049 32.0999 41.6787L31.2761 40.1338C31.1062 39.8149 30.7669 39.6435 30.4268 39.6741Z" fill="#969A9F"/>
</svg>
