<svg width="2482" height="814" viewBox="0 0 2482 814" fill="none" xmlns="http://www.w3.org/2000/svg">
<path d="M13.4582 545.35C10.6564 517.332 -10.156 475.768 12.3614 449.928C71.3006 382.293 221.067 436.746 276.692 477.348C360.827 538.761 384.482 653.141 352.371 748.26C332.022 808.54 253.819 847.287 232.82 765.808C208.111 669.939 290.547 567.049 364.436 513.543C461.976 442.911 562.451 708.025 473.02 780.067C428.602 815.848 402.067 768.015 402.824 725.227C405.153 593.685 521.194 518.284 619.992 457.057C656.461 434.457 729.493 358.854 772.997 393.991C803.112 418.315 835.736 493.273 832.773 533.285C829.297 580.207 777.749 537.08 773.545 509.156C759.647 416.83 848.517 312.678 930.388 279.375C1005.33 248.889 1161.59 197.074 1231.46 260.181C1275.26 299.744 1312.13 364.618 1364.72 392.894C1492.23 461.446 1688.22 377.902 1801.25 315.021C1856.47 284.307 1983.93 167.467 1880.77 112.112C1791.36 64.1342 1730.69 77.9001 1673.47 154.887C1593.58 262.376 1545.14 370.88 1500.18 495.994C1473.05 571.487 1453.32 642.669 1404.76 708.226C1385.99 733.555 1350.43 791.817 1316.46 799.809C1297.89 804.181 1322.97 759.816 1336.21 746.066C1394.94 685.051 1481.48 662.122 1562.15 648.45C1631.69 636.663 1708.37 628.745 1778.22 642.966C1836.95 654.922 1883.59 695.57 1941.64 706.581C2077.89 732.421 2227.9 671.118 2355.14 630.353C2358.06 629.418 2480.45 588.969 2480.18 588.674C2457.2 563.786 2413.66 574.056 2379.82 572.77C2120.83 562.936 1860.36 579.319 1601.63 588.126C1369.85 596.016 1138.19 603.619 906.259 604.578C883.226 604.673 860.161 605.788 837.16 604.578C831.844 604.298 847.437 601.787 852.515 600.191C904.225 583.939 952.497 556.688 1002.78 536.576C1036.68 523.014 1070.64 516.707 1093.81 487.22C1120.13 453.729 1169.07 411.668 1156.33 355.603C1140.08 284.095 1026.99 277.591 972.067 266.762C961.007 264.581 891.076 258.642 900.775 230.567C921.748 169.856 1022.37 139.634 1074.62 123.08C1120.52 108.535 1179.33 89.2591 1228.72 92.9177C1242.93 93.9699 1248.98 107.34 1262.17 109.37C1301.47 115.415 1349.5 30.9973 1365.82 2.43115" stroke="black" stroke-width="3" stroke-linecap="round"/>
</svg>
