<svg width="56" height="56" viewBox="0 0 56 56" fill="none" xmlns="http://www.w3.org/2000/svg">
<path d="M28 2.23999V17.92H20.16C15.8424 17.92 12.32 14.3976 12.32 10.08C12.32 5.76239 15.8424 2.23999 20.16 2.23999H28ZM28 20.16V35.84H20.16C15.8424 35.84 12.32 32.3176 12.32 28C12.32 23.6824 15.8424 20.16 20.16 20.16H28ZM28 38.08V45.92C28 50.2376 24.4776 53.76 20.16 53.76C15.8424 53.76 12.32 50.2376 12.32 45.92C12.32 41.6024 15.8424 38.08 20.16 38.08H28ZM45.92 10.08C45.92 14.3976 42.3976 17.92 38.08 17.92H30.24V2.23999H38.08C42.3976 2.23999 45.92 5.76239 45.92 10.08ZM38.08 20.16C36.0007 20.16 34.0066 20.986 32.5363 22.4563C31.066 23.9266 30.24 25.9207 30.24 28C30.24 30.0793 31.066 32.0734 32.5363 33.5437C34.0066 35.014 36.0007 35.84 38.08 35.84C40.1593 35.84 42.1534 35.014 43.6237 33.5437C45.094 32.0734 45.92 30.0793 45.92 28C45.92 25.9207 45.094 23.9266 43.6237 22.4563C42.1534 20.986 40.1593 20.16 38.08 20.16Z" fill="#969A9F"/>
</svg>
