<svg width="56" height="56" viewBox="0 0 56 56" fill="none" xmlns="http://www.w3.org/2000/svg">
<path d="M52.4081 24.7406L31.2594 3.59186C30.3625 2.69062 29.1812 2.23999 28 2.23999C26.8187 2.23999 25.6375 2.69062 24.7406 3.59186L20.5581 7.77436L25.7337 12.95C27.4531 11.9394 29.6931 12.1581 31.1675 13.6325C32.6419 15.1069 32.8562 17.3469 31.8456 19.0619L36.9337 24.15C38.6531 23.1394 40.8931 23.3581 42.3675 24.8325C44.1175 26.5825 44.1175 29.4175 42.3675 31.1675C40.6175 32.9175 37.7825 32.9175 36.0325 31.1675C34.5581 29.6931 34.3394 27.4531 35.35 25.7337L30.2619 20.6456C29.8987 20.86 29.5181 21.0175 29.12 21.1181V34.8775C31.0494 35.3762 32.48 37.1131 32.48 39.2C32.48 41.6762 30.4762 43.68 28 43.68C25.5237 43.68 23.52 41.6762 23.52 39.2C23.52 37.1131 24.9506 35.3762 26.88 34.8775V21.1181C26.1319 20.9256 25.4187 20.5537 24.8325 19.9675C23.3581 18.4931 23.1437 16.2531 24.1544 14.5381L18.9744 9.35812L3.59187 24.7406C1.78937 26.5387 1.78937 29.4612 3.59187 31.2594L24.7406 52.4081C25.6375 53.3094 26.8187 53.76 28 53.76C29.1812 53.76 30.3625 53.3094 31.2594 52.4081L52.4081 31.2594C54.2106 29.4612 54.2106 26.5387 52.4081 24.7406Z" fill="#969A9F"/>
</svg>
