<svg width="60" height="60" viewBox="0 0 60 60" fill="none" xmlns="http://www.w3.org/2000/svg">
<path d="M54.3281 2.78909C54.1031 2.54065 53.7797 2.40002 53.4422 2.40002H6.55778C6.22028 2.40002 5.89685 2.54065 5.67185 2.78909C5.44216 3.03752 5.32966 3.37034 5.36247 3.70784L9.58591 51.0188C9.6281 51.5157 9.97497 51.9282 10.4531 52.0688L29.6672 57.5532C29.7703 57.586 29.8828 57.6 29.9953 57.6C30.1078 57.6 30.2156 57.586 30.3234 57.5532L49.5515 52.0688C50.0297 51.9282 50.3718 51.5157 50.4187 51.0188L54.6375 3.70784C54.6703 3.37034 54.5578 3.03752 54.3281 2.78909ZM44.2172 19.1016H21.6422L22.1812 25.2094H43.6734L42.0609 43.261L29.9906 46.9078L29.8734 46.8703L17.9437 43.2563L17.2922 35.9016H23.1375L23.3906 38.7563L30.0609 40.1532L36.6093 38.7563L37.3078 31.0313H16.8562L15.2672 13.2657H44.7375L44.2172 19.1016Z" fill="#969A9F"/>
</svg>
