<svg width="52" height="52" viewBox="0 0 52 52" fill="none" xmlns="http://www.w3.org/2000/svg">
<path fill-rule="evenodd" clip-rule="evenodd" d="M0.615231 0.769531H51.3845V51.5388H0.615231V0.769531ZM39.9063 43.7586C37.553 43.7586 36.2224 42.5068 35.1997 40.8036L31.3223 43.101C32.723 45.9237 35.5857 48.0772 40.0167 48.0772C44.5485 48.0772 47.9229 45.6771 47.9229 41.296C47.9229 37.2322 45.6341 35.4247 41.5802 33.6517L40.3875 33.1306C38.3404 32.2264 37.4539 31.6354 37.4539 30.1756C37.4539 28.9944 38.3396 28.0903 39.7371 28.0903C41.1072 28.0903 41.9896 28.6796 42.8077 30.1756L46.523 27.7426C44.9515 24.9232 42.7706 23.8465 39.7371 23.8465C35.4761 23.8465 32.7496 26.6247 32.7496 30.2742C32.7496 34.2361 35.0369 36.1102 38.4798 37.6062L39.6726 38.1281C41.8486 39.0989 43.1462 39.6899 43.1462 41.3585C43.1462 42.7509 41.8833 43.7586 39.9063 43.7586ZM21.4158 43.7282C19.7765 43.7282 19.0947 42.5816 18.3452 41.2253L14.4614 43.6234C15.5865 46.0519 17.7988 48.0682 21.6189 48.0682C25.8468 48.0682 28.7433 45.7749 28.7433 40.7362V24.1243H23.9722V40.6705C23.9722 43.1027 22.9833 43.7282 21.4158 43.7282Z" fill="#969A9F"/>
</svg>
