<svg width="44" height="44" viewBox="0 0 44 44" fill="none" xmlns="http://www.w3.org/2000/svg">
<g clip-path="url(#clip0_5_4)">
<path fill-rule="evenodd" clip-rule="evenodd" d="M4.9286 0.786133H39.0703C41.3586 0.786133 43.2137 2.6412 43.2137 4.92957V39.0713C43.2137 41.3596 41.3586 43.2147 39.0703 43.2147H4.9286C2.64022 43.2147 0.785156 41.3596 0.785156 39.0713V4.92957C0.785156 2.6412 2.64022 0.786133 4.9286 0.786133ZM27.0493 38.6971V34.5487C27.8016 35.1796 28.6186 35.6529 29.5005 35.9682C30.3825 36.2837 31.273 36.4415 32.1722 36.4415C32.6996 36.4415 33.16 36.3939 33.5534 36.2988C33.9468 36.2038 34.2754 36.072 34.539 35.9034C34.8028 35.7348 34.9995 35.5362 35.1292 35.3071C35.2589 35.0781 35.3238 34.8296 35.3238 34.5617C35.3238 34.1986 35.22 33.8745 35.0125 33.5894C34.8049 33.3042 34.5218 33.0406 34.1629 32.7986C33.8042 32.5567 33.3783 32.3233 32.8855 32.0985C32.3927 31.8738 31.8609 31.6448 31.2903 31.4115C29.8377 30.8065 28.7547 30.0675 28.0415 29.1947C27.3282 28.3217 26.9715 27.2673 26.9715 26.0314C26.9715 25.0635 27.1661 24.2316 27.5552 23.5359C27.9443 22.8402 28.4738 22.2676 29.1438 21.8182C29.814 21.3687 30.59 21.0382 31.4718 20.8264C32.3538 20.6147 33.2875 20.5088 34.2733 20.5088C35.2416 20.5088 36.0997 20.5672 36.8476 20.6839C37.5955 20.8006 38.2851 20.9798 38.9161 21.2218V25.0981C38.6049 24.882 38.2656 24.6918 37.8981 24.5276C37.5306 24.3634 37.1524 24.2272 36.7633 24.1192C36.3741 24.0112 35.9873 23.9313 35.6025 23.8794C35.2178 23.8276 34.8524 23.8016 34.5066 23.8016C34.031 23.8016 33.5988 23.847 33.2097 23.9378C32.8207 24.0285 32.4921 24.1561 32.2241 24.3202C31.9561 24.4844 31.7486 24.681 31.6015 24.9101C31.4546 25.1391 31.381 25.3963 31.381 25.6814C31.381 25.9926 31.4632 26.2712 31.6275 26.5176C31.7918 26.7639 32.0251 26.9973 32.3278 27.2177C32.6304 27.438 32.9979 27.654 33.4302 27.8659C33.8625 28.0776 34.351 28.2958 34.8957 28.5205C35.6393 28.8316 36.3072 29.1622 36.8995 29.5122C37.4918 29.8622 37.9997 30.2577 38.4234 30.6985C38.8471 31.1392 39.1713 31.6427 39.396 32.2087C39.6209 32.7749 39.7332 33.4338 39.7332 34.1857C39.7332 35.2228 39.5365 36.0936 39.1431 36.7979C38.7498 37.5023 38.2158 38.0728 37.5414 38.5091C36.8671 38.9456 36.0825 39.2589 35.1875 39.4491C34.2925 39.6392 33.3481 39.7343 32.3538 39.7343C31.3334 39.7343 30.363 39.6478 29.4422 39.4749C28.5213 39.3021 27.7237 39.0429 27.0493 38.6971ZM25.397 24.3275H20.0752V39.4857H15.8594V24.3275H10.5636V20.9232H25.397V24.3275Z" fill="#969A9F"/>
</g>
<defs>
<clipPath id="clip0_5_4">
<rect width="44" height="44" fill="white"/>
</clipPath>
</defs>
</svg>
