<svg width="89" height="90" viewBox="0 0 89 90" fill="none" xmlns="http://www.w3.org/2000/svg">
<g clip-path="url(#clip0_210_41)">
<path d="M42.0462 5.31692L43.1127 5.34051C43.1496 5.54881 43.2314 5.73735 43.3581 5.90614C43.6344 6.27979 44.0629 6.47304 44.6435 6.48589C45.1116 6.49624 45.4601 6.42096 45.6889 6.26004C45.9178 6.09319 46.0355 5.86756 46.0418 5.58315C46.0467 5.35799 45.9471 5.17498 45.7427 5.03412C45.5442 4.89338 45.2565 4.76845 44.8796 4.65934C44.1431 4.45335 43.6489 4.28532 43.3968 4.15526C42.6989 3.81378 42.3573 3.31419 42.3718 2.65649C42.383 2.15286 42.6059 1.72207 43.0406 1.36415C43.4755 1.0003 44.0366 0.825981 44.7239 0.841186C45.6364 0.861371 46.3081 1.18153 46.739 1.80165C46.9228 2.06655 47.0524 2.37175 47.1278 2.71724L46.0612 2.69365C46.0234 2.52683 45.9526 2.37706 45.8489 2.24435C45.6066 1.94258 45.2247 1.78594 44.7033 1.7744C44.3004 1.76549 43.9904 1.84162 43.7735 2.00281C43.5565 2.164 43.4451 2.37494 43.4393 2.63565C43.4307 3.02671 43.818 3.33761 44.6014 3.56835C44.6661 3.58757 44.7898 3.62587 44.9723 3.68326C45.1549 3.73472 45.2844 3.77612 45.3608 3.80745C45.4432 3.83299 45.5667 3.87722 45.7313 3.94014C45.902 3.99727 46.0282 4.05045 46.1101 4.09968C46.1921 4.14892 46.2973 4.21349 46.426 4.2934C46.5548 4.36739 46.6508 4.44658 46.7142 4.53097C46.7836 4.60957 46.8527 4.70002 46.9216 4.80232C46.9964 4.90476 47.0471 5.02148 47.0739 5.15249C47.1008 5.27757 47.1126 5.41418 47.1093 5.5623C47.0975 6.09557 46.8653 6.54393 46.4126 6.90738C45.966 7.26504 45.3694 7.43562 44.6229 7.4191C43.6274 7.39708 42.9032 7.0402 42.4502 6.34845C42.2433 6.0534 42.1087 5.70955 42.0462 5.31692Z" fill="#F6F0E2"/>
<path d="M52.634 7.36376C52.1961 6.58577 52.1114 5.74202 52.3797 4.83253C52.6481 3.92303 53.1773 3.26041 53.9673 2.84469C54.7573 2.42896 55.6042 2.35442 56.508 2.62109C57.5426 2.92632 58.2424 3.52827 58.6075 4.42694C58.7711 4.81505 58.8522 5.23135 58.8508 5.67584L57.8702 5.38654C57.835 5.12898 57.7533 4.88241 57.625 4.64684C57.3325 4.10946 56.8679 3.74684 56.2313 3.55901C55.5889 3.36949 55.0056 3.41983 54.4813 3.71003C53.9569 4.00023 53.5975 4.47502 53.4029 5.13441C53.2084 5.79379 53.2525 6.38766 53.5354 6.91601C53.8182 7.44436 54.2808 7.80329 54.9231 7.99281C55.5768 8.18568 56.1811 8.11679 56.7359 7.78615C56.9805 7.64823 57.1925 7.46362 57.372 7.23233L58.3526 7.52163C58.0739 7.9214 57.7533 8.24388 57.3905 8.48907C56.5729 9.08204 55.6582 9.22926 54.6464 8.93073C53.7426 8.66407 53.0718 8.14174 52.634 7.36376Z" fill="#F6F0E2"/>
<path d="M61.8283 11.5536L65.0898 6.25391L67.399 7.67502C68.0249 8.0602 68.4226 8.52769 68.5923 9.07747C68.762 9.62726 68.6961 10.147 68.3948 10.6365C68.1556 11.0252 67.8233 11.2939 67.3977 11.4426C66.9803 11.5893 66.5245 11.5837 66.0303 11.4256L66.1438 14.2095L65.1217 13.5805L65.0373 10.9189L63.8638 10.1967L62.6989 12.0895L61.8283 11.5536ZM64.3763 9.36389L65.8148 10.2492C66.5719 10.7151 67.1291 10.6579 67.4863 10.0774C67.8435 9.49697 67.6436 8.97378 66.8865 8.50784L65.448 7.62255L64.3763 9.36389Z" fill="#F6F0E2"/>
<path d="M70.6457 16.9034C70.6692 16.0111 71.0222 15.2443 71.7046 14.6031C72.387 13.9618 73.1742 13.6572 74.0663 13.6891C74.9583 13.721 75.7311 14.0846 76.3845 14.78C77.0379 15.4753 77.3529 16.2692 77.3293 17.1615C77.3058 18.0538 76.9528 18.8206 76.2704 19.4618C75.588 20.1031 74.8008 20.4078 73.9087 20.3758C73.0167 20.3439 72.2439 19.9803 71.5905 19.285C70.9371 18.5896 70.6221 17.7958 70.6457 16.9034ZM74.0853 14.6959C73.4862 14.6815 72.9361 14.9097 72.4351 15.3805C71.9341 15.8513 71.6722 16.3861 71.6494 16.985C71.6266 17.5838 71.8445 18.1273 72.3031 18.6153C72.7577 19.099 73.2845 19.3481 73.8836 19.3625C74.4868 19.3813 75.0389 19.1552 75.5399 18.6844C76.0409 18.2137 76.3008 17.6767 76.3195 17.0735C76.3423 16.4746 76.1264 15.9333 75.6719 15.4496C75.2133 14.9616 74.6844 14.7104 74.0853 14.6959Z" fill="#F6F0E2"/>
<path d="M76.436 25.1983L81.8789 22.1816L82.3745 23.0758L77.7869 25.6184L79.3168 28.3788L78.4615 28.8528L76.436 25.1983Z" fill="#F6F0E2"/>
<path d="M79.9898 32.5811L85.9512 30.7959L86.2445 31.7753L81.2199 33.2799L82.1252 36.3032L81.1884 36.5837L79.9898 32.5811Z" fill="#F6F0E2"/>
<path d="M82.2405 46.2245L88.4336 46.833L88.2293 48.9121C88.1348 49.8735 87.759 50.6376 87.1019 51.2043C86.4447 51.7709 85.6797 52.0114 84.8068 51.9256C83.9338 51.8398 83.2302 51.4551 82.6959 50.7713C82.1616 50.0876 81.9417 49.265 82.0362 48.3036L82.2405 46.2245ZM83.1137 47.3376L83.0094 48.3992C82.9427 49.0775 83.0867 49.6425 83.4413 50.0942C83.796 50.5459 84.2859 50.8025 84.9111 50.8639C85.5363 50.9254 86.0668 50.7691 86.5025 50.395C86.9383 50.021 87.1895 49.4948 87.2561 48.8165L87.3604 47.7548L83.1137 47.3376Z" fill="#F6F0E2"/>
<path d="M81.17 57.1166C81.9854 56.7533 82.8294 56.7414 83.7021 57.0809C84.5748 57.4204 85.1889 57.9995 85.5445 58.8183C85.9001 59.6371 85.9049 60.4911 85.559 61.3803C85.213 62.2696 84.6324 62.8959 83.817 63.2591C83.0016 63.6224 82.1575 63.6342 81.2848 63.2947C80.4121 62.9553 79.798 62.3761 79.4424 61.5574C79.0869 60.7386 79.082 59.8846 79.428 58.9953C79.7739 58.1061 80.3546 57.4798 81.17 57.1166ZM84.6441 59.2693C84.399 58.7224 83.956 58.3244 83.3153 58.0751C82.6746 57.8259 82.0791 57.82 81.5289 58.0575C80.9787 58.2949 80.5821 58.7257 80.3393 59.3499C80.0987 59.9685 80.1009 60.5512 80.3461 61.0981C80.589 61.6505 81.0309 62.0513 81.6716 62.3005C82.3123 62.5498 82.9089 62.5529 83.4613 62.3099C84.0115 62.0725 84.4069 61.6444 84.6476 61.0258C84.8904 60.4017 84.8892 59.8162 84.6441 59.2693Z" fill="#F6F0E2"/>
<path d="M81.4297 69.5361L80.7682 70.373L75.911 67.9163L75.8283 68.0209L79.3624 72.1515L78.3977 73.372L73.5351 70.9222L73.4524 71.0268L76.992 75.1504L76.358 75.9525L72.2753 71.0823L73.2952 69.7921L77.9669 72.125L78.0496 72.0203L74.6734 68.0485L75.7208 66.7234L81.4297 69.5361Z" fill="#F6F0E2"/>
<path d="M68.2827 74.8949L71.8594 79.9873L70.659 80.8304L65.6044 78.3513L65.5317 78.4024L66.0387 78.9696L68.4402 82.3888L67.6036 82.9764L64.0269 77.884L65.2273 77.041L70.2819 79.5201L70.3546 79.469L69.8476 78.9017L67.4461 75.4825L68.2827 74.8949Z" fill="#F6F0E2"/>
<path d="M54.1298 84.0982C54.3161 84.2112 54.436 84.3771 54.4895 84.5959C54.5431 84.8146 54.5133 85.0172 54.4002 85.2035C54.2872 85.3898 54.1213 85.5097 53.9025 85.5632C53.6838 85.6167 53.4812 85.587 53.2949 85.4739C53.1086 85.3608 52.9887 85.1949 52.9352 84.9762C52.8817 84.7574 52.9114 84.5549 53.0245 84.3686C53.1375 84.1823 53.3035 84.0624 53.5222 84.0089C53.741 83.9553 53.9435 83.9851 54.1298 84.0982Z" fill="#F6F0E2"/>
<path d="M41.9168 85.3838L40.8582 85.2518C40.8427 85.0408 40.7805 84.8449 40.6717 84.6641C40.4349 84.2642 40.0283 84.0284 39.452 83.9565C38.9874 83.8985 38.6331 83.9379 38.389 84.0747C38.1443 84.2174 38.0043 84.4299 37.9691 84.7121C37.9412 84.9356 38.0217 85.1278 38.2107 85.2888C38.3938 85.449 38.6673 85.6026 39.0312 85.7495C39.7428 86.0294 40.2174 86.2469 40.4549 86.4019C41.1144 86.8127 41.4034 87.3445 41.3219 87.9973C41.2596 88.4972 40.9939 88.903 40.525 89.2148C40.0554 89.5325 39.4794 89.6488 38.7972 89.5637C37.8915 89.4507 37.256 89.0638 36.8905 88.403C36.7345 88.1208 36.6367 87.804 36.5969 87.4526L37.6555 87.5846C37.6761 87.7545 37.7313 87.9107 37.821 88.0532C38.0313 88.3781 38.3953 88.5728 38.9128 88.6374C39.3127 88.6873 39.6288 88.6431 39.861 88.5048C40.0933 88.3666 40.2256 88.1681 40.2579 87.9093C40.3063 87.5212 39.9526 87.1724 39.1968 86.8631C39.1344 86.8374 39.0153 86.7867 38.8395 86.7111C38.6631 86.6413 38.5385 86.5869 38.4657 86.548C38.3863 86.5142 38.2679 86.4576 38.1106 86.3782C37.9467 86.304 37.8265 86.2383 37.75 86.1809C37.6735 86.1236 37.5754 86.0487 37.4555 85.9561C37.335 85.8694 37.2475 85.7808 37.193 85.6904C37.132 85.6051 37.0724 85.5081 37.0143 85.3993C36.9504 85.2898 36.9117 85.1685 36.8985 85.0355C36.8845 84.9083 36.8866 84.7712 36.905 84.6242C36.971 84.0949 37.2477 83.6725 37.735 83.357C38.2157 83.0467 38.8265 82.9378 39.5675 83.0302C40.5555 83.1535 41.2397 83.5822 41.6199 84.3165C41.7957 84.6311 41.8946 84.9869 41.9168 85.3838Z" fill="#F6F0E2"/>
<path d="M31.5958 82.2679C31.9521 83.0864 31.9505 83.9344 31.5909 84.8118C31.2314 85.6893 30.6375 86.2946 29.8093 86.6277C28.981 86.9608 28.1309 86.9487 27.259 86.5914C26.2609 86.1824 25.626 85.5123 25.3542 84.5812C25.231 84.1784 25.1928 83.756 25.2394 83.314L26.1854 83.7016C26.1942 83.9614 26.2504 84.215 26.354 84.4624C26.5903 85.0268 27.0155 85.4349 27.6298 85.6866C28.2495 85.9405 28.8349 85.9498 29.3861 85.7145C29.9372 85.4792 30.3431 85.0435 30.6038 84.4073C30.8645 83.7712 30.881 83.1759 30.6535 82.6215C30.4259 82.0671 30.0023 81.6629 29.3826 81.409C28.7519 81.1506 28.1438 81.1576 27.5582 81.43C27.3008 81.5423 27.0711 81.7044 26.869 81.9162L25.923 81.5285C26.2409 81.1592 26.5927 80.871 26.9785 80.6641C27.8523 80.1574 28.7772 80.1041 29.7534 80.5041C30.6253 80.8614 31.2395 81.4493 31.5958 82.2679Z" fill="#F6F0E2"/>
<path d="M22.8722 77.1644L19.0879 82.1045L16.9354 80.4556C16.352 80.0087 16.0039 79.5032 15.8911 78.939C15.7783 78.3748 15.8967 77.8645 16.2463 77.4081C16.5238 77.0458 16.8818 76.8124 17.3203 76.7078C17.7505 76.6043 18.2034 76.6564 18.679 76.8639L18.8495 74.0829L19.8022 74.8128L19.6152 77.4691L20.709 78.307L22.0606 76.5427L22.8722 77.1644ZM20.1144 79.0833L18.7735 78.0562C18.0678 77.5156 17.5077 77.5158 17.0932 78.0568C16.6787 78.5979 16.8244 79.1387 17.5301 79.6793L18.871 80.7065L20.1144 79.0833Z" fill="#F6F0E2"/>
<path d="M14.6476 70.9448C14.5333 71.8301 14.1041 72.5569 13.36 73.1254C12.6158 73.6938 11.8017 73.9167 10.9175 73.7941C10.0333 73.6715 9.3016 73.2311 8.72237 72.4729C8.14314 71.7146 7.91067 70.8928 8.02495 70.0075C8.13922 69.1222 8.56843 68.3954 9.31256 67.8269C10.0567 67.2585 10.8709 67.0356 11.7551 67.1582C12.6392 67.2807 13.3709 67.7212 13.9502 68.4794C14.5294 69.2377 14.7619 70.0595 14.6476 70.9448ZM11.0011 72.7906C11.5956 72.8659 12.1661 72.6949 12.7124 72.2776C13.2587 71.8603 13.5737 71.3549 13.6574 70.7615C13.741 70.168 13.5796 69.6052 13.1731 69.073C12.7701 68.5456 12.2714 68.2441 11.6769 68.1688C11.0787 68.0887 10.5065 68.2573 9.96015 68.6747C9.41382 69.092 9.10062 69.5997 9.02056 70.1979C8.93689 70.7913 9.09653 71.3518 9.49948 71.8792C9.90601 72.4114 10.4066 72.7152 11.0011 72.7906Z" fill="#F6F0E2"/>
<path d="M9.73344 62.104L4.01171 64.5508L3.60974 63.6108L8.43234 61.5485L7.19147 58.6468L8.0906 58.2623L9.73344 62.104Z" fill="#F6F0E2"/>
<path d="M6.94813 54.3965L0.835955 55.5654L0.643921 54.5613L5.79561 53.5761L5.20281 50.4763L6.1633 50.2926L6.94813 54.3965Z" fill="#F6F0E2"/>
<path d="M6.09702 40.5953L-0.00195312 39.3594L0.41297 37.3119C0.604835 36.3651 1.05649 35.6433 1.76792 35.1464C2.47935 34.6496 3.2649 34.4883 4.12457 34.6625C4.98423 34.8367 5.64501 35.2911 6.1069 36.0257C6.56879 36.7603 6.70381 37.601 6.51194 38.5478L6.09702 40.5953ZM5.34166 39.3991L5.55353 38.3536C5.6889 37.6856 5.60319 37.1089 5.29642 36.6234C4.98964 36.138 4.5284 35.8328 3.91269 35.7081C3.29699 35.5833 2.75335 35.6848 2.28178 36.0125C1.81021 36.3402 1.50675 36.8381 1.37138 37.5061L1.1595 38.5516L5.34166 39.3991Z" fill="#F6F0E2"/>
<path d="M8.27299 29.8693C7.42485 30.1476 6.58399 30.0735 5.7504 29.6469C4.9168 29.2203 4.36483 28.5817 4.09447 27.7309C3.82411 26.8802 3.90628 26.0302 4.34096 25.1807C4.77565 24.3313 5.41706 23.7674 6.2652 23.4891C7.11333 23.2108 7.9542 23.2849 8.78779 23.7115C9.62139 24.1381 10.1734 24.7767 10.4437 25.6274C10.7141 26.4781 10.6319 27.3282 10.1972 28.1776C9.76254 29.0271 9.12113 29.5909 8.27299 29.8693ZM5.03611 27.374C5.22428 27.9429 5.62437 28.384 6.23638 28.6972C6.84838 29.0104 7.44017 29.0769 8.01173 28.8967C8.58329 28.7165 9.02161 28.3283 9.3267 27.7322C9.62909 27.1412 9.6862 26.5613 9.49803 25.9923C9.31255 25.4181 8.91381 24.9743 8.30181 24.6612C7.6898 24.348 7.09667 24.2841 6.52241 24.4696C5.95085 24.6498 5.51388 25.0353 5.21149 25.6262C4.9064 26.2224 4.84794 26.805 5.03611 27.374Z" fill="#F6F0E2"/>
<path d="M9.27734 17.4883L10.0206 16.7231L14.6024 19.6616L14.6953 19.566L11.6002 15.097L12.6841 13.9811L17.2721 16.9133L17.365 16.8176L14.2637 12.355L14.976 11.6217L18.5416 16.8822L17.3956 18.0619L12.9857 15.2655L12.8928 15.3611L15.8471 19.6561L14.6702 20.8677L9.27734 17.4883Z" fill="#F6F0E2"/>
<path d="M22.9029 13.4955L19.8633 8.06544L21.1432 7.34896L25.9192 10.3298L25.9967 10.2864L25.5501 9.67049L23.5092 6.02457L24.4013 5.52521L27.4409 10.9553L26.1609 11.6718L21.385 8.69088L21.3074 8.73431L21.7541 9.35025L23.795 12.9962L22.9029 13.4955Z" fill="#F6F0E2"/>
<path d="M34.0657 5.80277C33.8918 5.67133 33.7894 5.49408 33.7585 5.27101C33.7275 5.04793 33.7777 4.84949 33.9092 4.67567C34.0406 4.50185 34.2179 4.39946 34.4409 4.36848C34.664 4.33751 34.8624 4.38774 35.0363 4.51918C35.2101 4.65062 35.3125 4.82787 35.3435 5.05094C35.3744 5.27401 35.3242 5.47246 35.1928 5.64628C35.0613 5.8201 34.8841 5.92249 34.661 5.95347C34.4379 5.98444 34.2395 5.9342 34.0657 5.80277Z" fill="#F6F0E2"/>
</g>
<defs>
<clipPath id="clip0_210_41">
<rect width="89" height="90" fill="white"/>
</clipPath>
</defs>
</svg>
