<svg width="133" height="136" viewBox="0 0 133 136" fill="none" xmlns="http://www.w3.org/2000/svg">
<path fill-rule="evenodd" clip-rule="evenodd" d="M4 36C1.79086 36 0 37.7909 0 40V115C0 117.209 1.79086 119 4 119H129C131.209 119 133 117.209 133 115V40C133 37.7909 131.209 36 129 36H4ZM5 40C4.44772 40 4 40.4477 4 41V114C4 114.552 4.44772 115 5 115H128C128.552 115 129 114.552 129 114V41C129 40.4477 128.552 40 128 40H5Z" fill="url(#paint0_linear_1127_3970)"/>
<path d="M57 119H76C76 119 75 124.158 75 127.5C75 129.569 77.2984 132.333 79.0502 134.139C79.696 134.805 79.2303 136 78.3026 136H54.6974C53.7697 136 53.304 134.805 53.9498 134.139C55.7016 132.333 58 129.569 58 127.5C58 124.158 57 119 57 119Z" fill="url(#paint1_linear_1127_3970)"/>
<path d="M77 55H115M77 59.5H109M77 63.5H115M77 67.5H104M77 71.5H113M18 85H56M18 89.5H50M18 93.5H56M18 97.5H45M18 101.5H54M18 51H65V74H18V51ZM68 81H115V104H68V81Z" stroke="url(#paint2_linear_1127_3970)"/>
<path d="M48.3371 7.06V5.86L49.9571 4.6H50.9171V13H49.8371V5.92L48.3371 7.06ZM52.3609 7.3C52.3609 6.476 52.6609 5.78 53.2609 5.212C53.8609 4.644 54.6209 4.36 55.5409 4.36C56.4609 4.36 57.2209 4.644 57.8209 5.212C58.4209 5.78 58.7209 6.476 58.7209 7.3C58.7209 7.692 58.6449 8.08 58.4929 8.464C58.3489 8.848 58.2009 9.156 58.0489 9.388C57.8969 9.62 57.6609 9.944 57.3409 10.36L55.3009 13H54.0409L56.2609 10.192L56.2969 10.144L56.3089 10.132C56.0929 10.204 55.8169 10.24 55.4809 10.24C54.5929 10.24 53.8489 9.956 53.2489 9.388C52.6569 8.812 52.3609 8.116 52.3609 7.3ZM54.0169 5.932C53.6329 6.292 53.4409 6.748 53.4409 7.3C53.4409 7.852 53.6329 8.312 54.0169 8.68C54.4089 9.04 54.9169 9.22 55.5409 9.22C56.1649 9.22 56.6689 9.04 57.0529 8.68C57.4449 8.312 57.6409 7.852 57.6409 7.3C57.6409 6.748 57.4449 6.292 57.0529 5.932C56.6689 5.564 56.1649 5.38 55.5409 5.38C54.9169 5.38 54.4089 5.564 54.0169 5.932ZM59.5651 13V11.98L62.3251 9.94C63.0851 9.372 63.6251 8.884 63.9451 8.476C64.2651 8.068 64.4251 7.596 64.4251 7.06C64.4251 6.572 64.2571 6.172 63.9211 5.86C63.5931 5.54 63.1611 5.38 62.6251 5.38C61.9371 5.38 61.4251 5.66 61.0891 6.22C60.9291 6.476 60.8211 6.756 60.7651 7.06H59.6251C59.6971 6.564 59.8531 6.116 60.0931 5.716C60.6611 4.812 61.5051 4.36 62.6251 4.36C63.4571 4.36 64.1451 4.62 64.6891 5.14C65.2331 5.66 65.5051 6.3 65.5051 7.06C65.5051 7.788 65.2971 8.428 64.8811 8.98C64.4731 9.524 63.8611 10.084 63.0451 10.66L61.3051 11.896L61.1851 11.968V11.992L61.2931 11.98H65.5051V13H59.5651ZM67.8128 12.004C67.0768 11.18 66.7088 10.112 66.7088 8.8C66.7088 7.488 67.0768 6.42 67.8128 5.596C68.5488 4.772 69.4408 4.36 70.4888 4.36C71.5368 4.36 72.4288 4.772 73.1648 5.596C73.9008 6.42 74.2688 7.488 74.2688 8.8C74.2688 10.112 73.9008 11.18 73.1648 12.004C72.4288 12.828 71.5368 13.24 70.4888 13.24C69.4408 13.24 68.5488 12.828 67.8128 12.004ZM68.5448 6.292C68.0408 6.892 67.7888 7.728 67.7888 8.8C67.7888 9.872 68.0408 10.712 68.5448 11.32C69.0568 11.92 69.7048 12.22 70.4888 12.22C71.2728 12.22 71.9168 11.92 72.4208 11.32C72.9328 10.712 73.1888 9.872 73.1888 8.8C73.1888 7.728 72.9328 6.892 72.4208 6.292C71.9168 5.684 71.2728 5.38 70.4888 5.38C69.7048 5.38 69.0568 5.684 68.5448 6.292ZM75.7716 15.28V7H76.7316V7.96H76.7436L76.8636 7.78C76.9996 7.572 77.2436 7.372 77.5956 7.18C77.9476 6.98 78.3796 6.88 78.8916 6.88C79.6916 6.88 80.3716 7.18 80.9316 7.78C81.4916 8.372 81.7716 9.112 81.7716 10C81.7716 10.888 81.4916 11.632 80.9316 12.232C80.3716 12.824 79.6916 13.12 78.8916 13.12C78.3796 13.12 77.9436 13.024 77.5836 12.832C77.2316 12.632 76.9916 12.424 76.8636 12.208L76.7436 12.04H76.7316V15.28H75.7716ZM77.3076 8.404C76.9236 8.82 76.7316 9.352 76.7316 10C76.7316 10.648 76.9236 11.18 77.3076 11.596C77.6996 12.012 78.1876 12.22 78.7716 12.22C79.3556 12.22 79.8396 12.012 80.2236 11.596C80.6156 11.18 80.8116 10.648 80.8116 10C80.8116 9.352 80.6156 8.82 80.2236 8.404C79.8396 7.988 79.3556 7.78 78.7716 7.78C78.1876 7.78 77.6996 7.988 77.3076 8.404ZM82.1415 13L83.9415 9.94L82.2015 7H83.2815L84.7215 9.46H85.2615L86.7015 7H87.7815L86.0415 9.94L87.8415 13H86.7615L85.2615 10.36H84.7215L83.2215 13H82.1415Z" fill="white"/>
<path d="M0 25L5 27.8868V22.1132L0 25ZM133 25L128 22.1132V27.8868L133 25ZM3.02273 25.5H5.03788V24.5H3.02273V25.5ZM7.05303 25.5H9.06818V24.5H7.05303V25.5ZM11.0833 25.5H13.0985V24.5H11.0833V25.5ZM15.1136 25.5H17.1288V24.5H15.1136V25.5ZM19.1439 25.5H21.1591V24.5H19.1439V25.5ZM23.1742 25.5H25.1894V24.5H23.1742V25.5ZM27.2045 25.5H29.2197V24.5H27.2045V25.5ZM31.2349 25.5H33.25V24.5H31.2349V25.5ZM35.2652 25.5H37.2803V24.5H35.2652V25.5ZM39.2955 25.5H41.3106V24.5H39.2955V25.5ZM43.3258 25.5H45.3409V24.5H43.3258V25.5ZM47.3561 25.5H49.3712V24.5H47.3561V25.5ZM51.3864 25.5H53.4015V24.5H51.3864V25.5ZM55.4167 25.5H57.4318V24.5H55.4167V25.5ZM59.447 25.5H61.4621V24.5H59.447V25.5ZM63.4773 25.5H65.4924V24.5H63.4773V25.5ZM67.5076 25.5H69.5227V24.5H67.5076V25.5ZM71.5379 25.5H73.553V24.5H71.5379V25.5ZM75.5682 25.5H77.5834V24.5H75.5682V25.5ZM79.5985 25.5H81.6136V24.5H79.5985V25.5ZM83.6288 25.5H85.644V24.5H83.6288V25.5ZM87.6591 25.5H89.6743V24.5H87.6591V25.5ZM91.6894 25.5H93.7046V24.5H91.6894V25.5ZM95.7197 25.5H97.7349V24.5H95.7197V25.5ZM99.75 25.5H101.765V24.5H99.75V25.5ZM103.78 25.5H105.795V24.5H103.78V25.5ZM107.811 25.5H109.826V24.5H107.811V25.5ZM111.841 25.5H113.856V24.5H111.841V25.5ZM115.871 25.5H117.886V24.5H115.871V25.5ZM119.902 25.5H121.917V24.5H119.902V25.5ZM123.932 25.5H125.947V24.5H123.932V25.5ZM127.962 25.5H129.977V24.5H127.962V25.5Z" fill="white"/>
<defs>
<linearGradient id="paint0_linear_1127_3970" x1="10.8733" y1="72.3833" x2="42.4661" y2="146.276" gradientUnits="userSpaceOnUse">
<stop stop-color="white" stop-opacity="0.64"/>
<stop offset="1" stop-color="white" stop-opacity="0.24"/>
</linearGradient>
<linearGradient id="paint1_linear_1127_3970" x1="10.8733" y1="72.3833" x2="42.4661" y2="146.276" gradientUnits="userSpaceOnUse">
<stop stop-color="white" stop-opacity="0.64"/>
<stop offset="1" stop-color="white" stop-opacity="0.24"/>
</linearGradient>
<linearGradient id="paint2_linear_1127_3970" x1="25.9301" y1="70.2832" x2="39.0554" y2="112.527" gradientUnits="userSpaceOnUse">
<stop stop-color="white" stop-opacity="0.64"/>
<stop offset="1" stop-color="white" stop-opacity="0.24"/>
</linearGradient>
</defs>
</svg>
