<svg width="141" height="111" viewBox="0 0 141 111" fill="none" xmlns="http://www.w3.org/2000/svg">
<path fill-rule="evenodd" clip-rule="evenodd" d="M17 36C14.7909 36 13 37.7909 13 40V105H128V40C128 37.7909 126.209 36 124 36H17ZM17 39C16.4477 39 16 39.4477 16 40V104C16 104.552 16.4477 105 17 105H124C124.552 105 125 104.552 125 104V40C125 39.4477 124.552 39 124 39H17Z" fill="url(#paint0_linear_1127_3963)"/>
<path d="M0 106C0 105.448 0.447715 105 1 105H140C140.552 105 141 105.448 141 106V110C141 110.552 140.552 111 140 111H0.999997C0.447712 111 0 110.552 0 110V106Z" fill="url(#paint1_linear_1127_3963)"/>
<path d="M78 49H116M78 53.5H110M78 57.5H116M78 61.5H105M78 65.5H114M25 79H63M25 83.5H57M25 87.5H63M25 91.5H52M25 95.5H61M25 45H69V68H25V45ZM72 75H116V98H72V75Z" stroke="url(#paint2_linear_1127_3963)"/>
<path d="M53.4699 7.06V5.86L55.0899 4.6H56.0499V13H54.9699V5.92L53.4699 7.06ZM57.3137 10.72H58.4537C58.5257 11.016 58.6497 11.268 58.8257 11.476C59.2257 11.972 59.8017 12.22 60.5537 12.22C61.2017 12.22 61.7017 12.064 62.0537 11.752C62.4137 11.44 62.5937 11.036 62.5937 10.54C62.5937 10.044 62.4177 9.64 62.0657 9.328C61.7137 9.016 61.2297 8.86 60.6137 8.86H58.8737V7.9L61.6817 5.632L61.6937 5.62H57.7337V4.6H63.1937V5.62L60.5537 7.744L60.4457 7.828L60.4337 7.84H60.6137C61.4937 7.84 62.2217 8.108 62.7977 8.644C63.3817 9.172 63.6737 9.804 63.6737 10.54C63.6737 11.284 63.3777 11.92 62.7857 12.448C62.2017 12.976 61.4577 13.24 60.5537 13.24C59.3537 13.24 58.4617 12.82 57.8777 11.98C57.6057 11.596 57.4177 11.176 57.3137 10.72ZM64.6304 10.3C64.6304 9.908 64.7024 9.52 64.8464 9.136C64.9904 8.752 65.1384 8.448 65.2904 8.224C65.4504 7.992 65.6904 7.664 66.0104 7.24L68.0504 4.6H69.3104L67.0904 7.408L67.0424 7.468L67.0304 7.48C67.2704 7.4 67.5504 7.36 67.8704 7.36C68.7584 7.36 69.4984 7.648 70.0904 8.224C70.6904 8.792 70.9904 9.484 70.9904 10.3C70.9904 11.124 70.6904 11.82 70.0904 12.388C69.4904 12.956 68.7304 13.24 67.8104 13.24C66.8904 13.24 66.1304 12.956 65.5304 12.388C64.9304 11.82 64.6304 11.124 64.6304 10.3ZM66.2864 8.932C65.9024 9.292 65.7104 9.748 65.7104 10.3C65.7104 10.852 65.9024 11.312 66.2864 11.68C66.6784 12.04 67.1864 12.22 67.8104 12.22C68.4344 12.22 68.9384 12.04 69.3224 11.68C69.7144 11.312 69.9104 10.852 69.9104 10.3C69.9104 9.748 69.7144 9.292 69.3224 8.932C68.9384 8.564 68.4344 8.38 67.8104 8.38C67.1864 8.38 66.6784 8.564 66.2864 8.932ZM71.9546 10.3C71.9546 9.908 72.0266 9.52 72.1706 9.136C72.3146 8.752 72.4626 8.448 72.6146 8.224C72.7746 7.992 73.0146 7.664 73.3346 7.24L75.3746 4.6H76.6346L74.4146 7.408L74.3666 7.468L74.3546 7.48C74.5946 7.4 74.8746 7.36 75.1946 7.36C76.0826 7.36 76.8226 7.648 77.4146 8.224C78.0146 8.792 78.3146 9.484 78.3146 10.3C78.3146 11.124 78.0146 11.82 77.4146 12.388C76.8146 12.956 76.0546 13.24 75.1346 13.24C74.2146 13.24 73.4546 12.956 72.8546 12.388C72.2546 11.82 71.9546 11.124 71.9546 10.3ZM73.6106 8.932C73.2266 9.292 73.0346 9.748 73.0346 10.3C73.0346 10.852 73.2266 11.312 73.6106 11.68C74.0026 12.04 74.5106 12.22 75.1346 12.22C75.7586 12.22 76.2626 12.04 76.6466 11.68C77.0386 11.312 77.2346 10.852 77.2346 10.3C77.2346 9.748 77.0386 9.292 76.6466 8.932C76.2626 8.564 75.7586 8.38 75.1346 8.38C74.5106 8.38 74.0026 8.564 73.6106 8.932ZM79.6388 15.28V7H80.5988V7.96H80.6108L80.7308 7.78C80.8668 7.572 81.1108 7.372 81.4628 7.18C81.8148 6.98 82.2468 6.88 82.7588 6.88C83.5588 6.88 84.2388 7.18 84.7988 7.78C85.3588 8.372 85.6388 9.112 85.6388 10C85.6388 10.888 85.3588 11.632 84.7988 12.232C84.2388 12.824 83.5588 13.12 82.7588 13.12C82.2468 13.12 81.8108 13.024 81.4508 12.832C81.0988 12.632 80.8588 12.424 80.7308 12.208L80.6108 12.04H80.5988V15.28H79.6388ZM81.1748 8.404C80.7908 8.82 80.5988 9.352 80.5988 10C80.5988 10.648 80.7908 11.18 81.1748 11.596C81.5668 12.012 82.0548 12.22 82.6388 12.22C83.2228 12.22 83.7068 12.012 84.0908 11.596C84.4828 11.18 84.6788 10.648 84.6788 10C84.6788 9.352 84.4828 8.82 84.0908 8.404C83.7068 7.988 83.2228 7.78 82.6388 7.78C82.0548 7.78 81.5668 7.988 81.1748 8.404ZM86.0087 13L87.8087 9.94L86.0687 7H87.1487L88.5887 9.46H89.1287L90.5687 7H91.6487L89.9087 9.94L91.7087 13H90.6287L89.1287 10.36H88.5887L87.0887 13H86.0087Z" fill="white"/>
<path d="M13 25L18 27.8868V22.1132L13 25ZM128 25L123 22.1132V27.8868L128 25ZM15.9741 25.5H17.9569V24.5H15.9741V25.5ZM19.9397 25.5H21.9224V24.5H19.9397V25.5ZM23.9052 25.5H25.8879V24.5H23.9052V25.5ZM27.8707 25.5H29.8534V24.5H27.8707V25.5ZM31.8362 25.5H33.819V24.5H31.8362V25.5ZM35.8017 25.5H37.7845V24.5H35.8017V25.5ZM39.7672 25.5H41.75V24.5H39.7672V25.5ZM43.7328 25.5H45.7155V24.5H43.7328V25.5ZM47.6983 25.5H49.681V24.5H47.6983V25.5ZM51.6638 25.5H53.6466V24.5H51.6638V25.5ZM55.6293 25.5H57.6121V24.5H55.6293V25.5ZM59.5948 25.5H61.5776V24.5H59.5948V25.5ZM63.5603 25.5H65.5431V24.5H63.5603V25.5ZM67.5259 25.5H69.5086V24.5H67.5259V25.5ZM71.4914 25.5H73.4741V24.5H71.4914V25.5ZM75.4569 25.5H77.4396V24.5H75.4569V25.5ZM79.4224 25.5H81.4052V24.5H79.4224V25.5ZM83.3879 25.5H85.3707V24.5H83.3879V25.5ZM87.3534 25.5H89.3362V24.5H87.3534V25.5ZM91.3189 25.5H93.3017V24.5H91.3189V25.5ZM95.2845 25.5H97.2672V24.5H95.2845V25.5ZM99.25 25.5H101.233V24.5H99.25V25.5ZM103.215 25.5H105.198V24.5H103.215V25.5ZM107.181 25.5H109.164V24.5H107.181V25.5ZM111.147 25.5H113.129V24.5H111.147V25.5ZM115.112 25.5H117.095V24.5H115.112V25.5ZM119.078 25.5H121.06V24.5H119.078V25.5ZM123.043 25.5H125.026V24.5H123.043V25.5Z" fill="white"/>
<defs>
<linearGradient id="paint0_linear_1127_3963" x1="11.5273" y1="63.2875" x2="29.6923" y2="123.343" gradientUnits="userSpaceOnUse">
<stop stop-color="white" stop-opacity="0.64"/>
<stop offset="1" stop-color="white" stop-opacity="0.24"/>
</linearGradient>
<linearGradient id="paint1_linear_1127_3963" x1="11.5273" y1="63.2875" x2="29.6923" y2="123.343" gradientUnits="userSpaceOnUse">
<stop stop-color="white" stop-opacity="0.64"/>
<stop offset="1" stop-color="white" stop-opacity="0.24"/>
</linearGradient>
<linearGradient id="paint2_linear_1127_3963" x1="32.4396" y1="64.2832" x2="46.2645" y2="106.027" gradientUnits="userSpaceOnUse">
<stop stop-color="white" stop-opacity="0.64"/>
<stop offset="1" stop-color="white" stop-opacity="0.24"/>
</linearGradient>
</defs>
</svg>
