<svg width="18" height="18" viewBox="0 0 18 18" fill="none" xmlns="http://www.w3.org/2000/svg">
<path d="M5.00415 6.54883H1.85709V15.9995H5.00415V6.54883Z" fill="black"/>
<path d="M15.3323 7.41259C14.6712 6.69096 13.7969 6.33008 12.7098 6.33008C12.3093 6.33008 11.9452 6.37935 11.6177 6.47795C11.2903 6.57649 11.0138 6.71474 10.788 6.89278C10.5624 7.07082 10.3827 7.23609 10.2493 7.38861C10.1224 7.53347 9.99836 7.70222 9.87731 7.89312V6.54927H6.73964L6.74926 7.00708C6.75571 7.31235 6.75888 8.25323 6.75888 9.82987C6.75888 11.4066 6.75253 13.4633 6.73977 16.0001H9.87731V10.7262C9.87731 10.4021 9.91208 10.1446 9.98216 9.95373C10.1158 9.62932 10.3174 9.35773 10.5878 9.13847C10.8581 8.91895 11.1934 8.80929 11.594 8.80929C12.1406 8.80929 12.5429 8.99841 12.8004 9.3767C13.0579 9.75495 13.1866 10.2779 13.1866 10.9455V15.9998H16.3241V10.5833C16.3239 9.19085 15.9936 8.13399 15.3323 7.41259Z" fill="black"/>
<path d="M3.44969 2C2.92206 2 2.49454 2.15429 2.16703 2.46256C1.83955 2.7709 1.67591 3.16017 1.67591 3.63075C1.67591 4.09474 1.83484 4.48268 2.15273 4.79412C2.47052 5.1056 2.89019 5.26142 3.41151 5.26142H3.43058C3.96469 5.26142 4.39548 5.10573 4.72286 4.79412C5.05023 4.48268 5.21073 4.09487 5.20442 3.63075C5.19807 3.1602 5.03584 2.7709 4.71805 2.46256C4.40029 2.15415 3.97735 2 3.44969 2Z" fill="black"/>
</svg>
